<svg xmlns="http://www.w3.org/2000/svg" viewBox="0 0 43 43" shape-rendering="crispEdges" role="img" aria-label="QR code"><rect width="43" height="43" fill="#fff"/><path d="M3 3h7v1h-7zM12 3h1v1h-1zM14 3h1v1h-1zM19 3h2v1h-2zM22 3h2v1h-2zM26 3h1v1h-1zM29 3h1v1h-1zM33 3h7v1h-7zM3 4h1v1h-1zM9 4h1v1h-1zM19 4h1v1h-1zM23 4h3v1h-3zM27 4h2v1h-2zM30 4h1v1h-1zM33 4h1v1h-1zM39 4h1v1h-1zM3 5h1v1h-1zM5 5h3v1h-3zM9 5h1v1h-1zM11 5h9v1h-9zM21 5h1v1h-1zM23 5h2v1h-2zM26 5h2v1h-2zM30 5h1v1h-1zM33 5h1v1h-1zM35 5h3v1h-3zM39 5h1v1h-1zM3 6h1v1h-1zM5 6h3v1h-3zM9 6h1v1h-1zM11 6h1v1h-1zM13 6h4v1h-4zM19 6h3v1h-3zM25 6h1v1h-1zM27 6h5v1h-5zM33 6h1v1h-1zM35 6h3v1h-3zM39 6h1v1h-1zM3 7h1v1h-1zM5 7h3v1h-3zM9 7h1v1h-1zM11 7h1v1h-1zM14 7h1v1h-1zM17 7h3v1h-3zM21 7h4v1h-4zM26 7h1v1h-1zM28 7h1v1h-1zM31 7h1v1h-1zM33 7h1v1h-1zM35 7h3v1h-3zM39 7h1v1h-1zM3 8h1v1h-1zM9 8h1v1h-1zM11 8h1v1h-1zM14 8h1v1h-1zM18 8h2v1h-2zM23 8h3v1h-3zM29 8h3v1h-3zM33 8h1v1h-1zM39 8h1v1h-1zM3 9h7v1h-7zM11 9h1v1h-1zM13 9h1v1h-1zM15 9h1v1h-1zM17 9h1v1h-1zM19 9h1v1h-1zM21 9h1v1h-1zM23 9h1v1h-1zM25 9h1v1h-1zM27 9h1v1h-1zM29 9h1v1h-1zM31 9h1v1h-1zM33 9h7v1h-7zM11 10h1v1h-1zM13 10h1v1h-1zM17 10h1v1h-1zM21 10h1v1h-1zM23 10h2v1h-2zM29 10h2v1h-2zM3 11h1v1h-1zM5 11h5v1h-5zM13 11h1v1h-1zM21 11h1v1h-1zM28 11h4v1h-4zM33 11h5v1h-5zM3 12h3v1h-3zM7 12h2v1h-2zM10 12h1v1h-1zM12 12h1v1h-1zM14 12h3v1h-3zM18 12h7v1h-7zM26 12h1v1h-1zM31 12h1v1h-1zM34 12h1v1h-1zM37 12h2v1h-2zM3 13h1v1h-1zM8 13h4v1h-4zM13 13h1v1h-1zM17 13h1v1h-1zM20 13h1v1h-1zM24 13h2v1h-2zM29 13h2v1h-2zM33 13h2v1h-2zM37 13h3v1h-3zM4 14h2v1h-2zM7 14h1v1h-1zM10 14h1v1h-1zM15 14h1v1h-1zM19 14h1v1h-1zM21 14h1v1h-1zM23 14h3v1h-3zM27 14h1v1h-1zM31 14h2v1h-2zM39 14h1v1h-1zM3 15h7v1h-7zM11 15h4v1h-4zM16 15h2v1h-2zM20 15h1v1h-1zM22 15h1v1h-1zM25 15h1v1h-1zM28 15h1v1h-1zM30 15h1v1h-1zM32 15h2v1h-2zM35 15h5v1h-5zM4 16h2v1h-2zM7 16h1v1h-1zM11 16h1v1h-1zM13 16h1v1h-1zM19 16h8v1h-8zM31 16h1v1h-1zM34 16h1v1h-1zM4 17h1v1h-1zM8 17h2v1h-2zM11 17h2v1h-2zM15 17h1v1h-1zM18 17h1v1h-1zM20 17h1v1h-1zM23 17h1v1h-1zM25 17h1v1h-1zM27 17h2v1h-2zM30 17h3v1h-3zM34 17h3v1h-3zM38 17h2v1h-2zM3 18h1v1h-1zM5 18h3v1h-3zM10 18h1v1h-1zM15 18h2v1h-2zM20 18h3v1h-3zM24 18h1v1h-1zM29 18h1v1h-1zM31 18h1v1h-1zM33 18h3v1h-3zM3 19h1v1h-1zM7 19h1v1h-1zM9 19h4v1h-4zM17 19h3v1h-3zM25 19h1v1h-1zM27 19h3v1h-3zM32 19h2v1h-2zM35 19h1v1h-1zM37 19h1v1h-1zM39 19h1v1h-1zM4 20h1v1h-1zM7 20h2v1h-2zM11 20h1v1h-1zM13 20h1v1h-1zM15 20h4v1h-4zM21 20h6v1h-6zM28 20h1v1h-1zM34 20h1v1h-1zM37 20h2v1h-2zM3 21h1v1h-1zM5 21h2v1h-2zM9 21h1v1h-1zM11 21h3v1h-3zM16 21h1v1h-1zM18 21h2v1h-2zM21 21h1v1h-1zM29 21h3v1h-3zM33 21h3v1h-3zM37 21h3v1h-3zM3 22h1v1h-1zM5 22h3v1h-3zM10 22h1v1h-1zM12 22h1v1h-1zM14 22h1v1h-1zM17 22h2v1h-2zM22 22h1v1h-1zM24 22h1v1h-1zM26 22h1v1h-1zM29 22h2v1h-2zM32 22h2v1h-2zM39 22h1v1h-1zM4 23h1v1h-1zM6 23h6v1h-6zM14 23h1v1h-1zM16 23h5v1h-5zM26 23h4v1h-4zM32 23h2v1h-2zM35 23h1v1h-1zM37 23h1v1h-1zM3 24h3v1h-3zM7 24h1v1h-1zM12 24h1v1h-1zM14 24h1v1h-1zM19 24h1v1h-1zM22 24h3v1h-3zM26 24h1v1h-1zM29 24h1v1h-1zM31 24h1v1h-1zM36 24h1v1h-1zM3 25h1v1h-1zM8 25h2v1h-2zM11 25h2v1h-2zM15 25h5v1h-5zM21 25h1v1h-1zM30 25h1v1h-1zM32 25h5v1h-5zM38 25h2v1h-2zM4 26h2v1h-2zM7 26h1v1h-1zM10 26h2v1h-2zM13 26h2v1h-2zM16 26h2v1h-2zM22 26h1v1h-1zM24 26h2v1h-2zM29 26h1v1h-1zM32 26h1v1h-1zM34 26h2v1h-2zM38 26h2v1h-2zM8 27h3v1h-3zM12 27h2v1h-2zM15 27h1v1h-1zM18 27h1v1h-1zM21 27h1v1h-1zM27 27h7v1h-7zM35 27h1v1h-1zM37 27h2v1h-2zM3 28h6v1h-6zM11 28h2v1h-2zM14 28h1v1h-1zM18 28h2v1h-2zM22 28h2v1h-2zM25 28h2v1h-2zM31 28h1v1h-1zM34 28h1v1h-1zM3 29h1v1h-1zM5 29h1v1h-1zM7 29h1v1h-1zM9 29h1v1h-1zM11 29h1v1h-1zM13 29h3v1h-3zM17 29h1v1h-1zM21 29h1v1h-1zM23 29h1v1h-1zM25 29h1v1h-1zM27 29h2v1h-2zM30 29h1v1h-1zM32 29h1v1h-1zM34 29h1v1h-1zM36 29h1v1h-1zM38 29h2v1h-2zM3 30h1v1h-1zM5 30h2v1h-2zM10 30h2v1h-2zM13 30h1v1h-1zM16 30h2v1h-2zM19 30h1v1h-1zM21 30h1v1h-1zM24 30h1v1h-1zM26 30h2v1h-2zM29 30h1v1h-1zM33 30h3v1h-3zM38 30h2v1h-2zM3 31h1v1h-1zM6 31h2v1h-2zM9 31h2v1h-2zM14 31h2v1h-2zM17 31h1v1h-1zM19 31h2v1h-2zM23 31h1v1h-1zM25 31h1v1h-1zM27 31h12v1h-12zM11 32h1v1h-1zM13 32h1v1h-1zM16 32h2v1h-2zM19 32h2v1h-2zM22 32h2v1h-2zM25 32h2v1h-2zM28 32h1v1h-1zM30 32h2v1h-2zM35 32h2v1h-2zM38 32h1v1h-1zM3 33h7v1h-7zM12 33h3v1h-3zM17 33h4v1h-4zM23 33h3v1h-3zM27 33h1v1h-1zM29 33h1v1h-1zM31 33h1v1h-1zM33 33h1v1h-1zM35 33h1v1h-1zM37 33h1v1h-1zM39 33h1v1h-1zM3 34h1v1h-1zM9 34h1v1h-1zM11 34h3v1h-3zM15 34h3v1h-3zM19 34h3v1h-3zM23 34h3v1h-3zM27 34h1v1h-1zM31 34h1v1h-1zM35 34h2v1h-2zM38 34h1v1h-1zM3 35h1v1h-1zM5 35h3v1h-3zM9 35h1v1h-1zM11 35h1v1h-1zM14 35h1v1h-1zM17 35h1v1h-1zM19 35h1v1h-1zM25 35h11v1h-11zM37 35h1v1h-1zM39 35h1v1h-1zM3 36h1v1h-1zM5 36h3v1h-3zM9 36h1v1h-1zM11 36h3v1h-3zM17 36h2v1h-2zM21 36h6v1h-6zM30 36h1v1h-1zM32 36h2v1h-2zM35 36h3v1h-3zM39 36h1v1h-1zM3 37h1v1h-1zM5 37h3v1h-3zM9 37h1v1h-1zM11 37h1v1h-1zM15 37h5v1h-5zM21 37h1v1h-1zM25 37h1v1h-1zM27 37h2v1h-2zM31 37h1v1h-1zM36 37h1v1h-1zM38 37h2v1h-2zM3 38h1v1h-1zM9 38h1v1h-1zM15 38h1v1h-1zM17 38h2v1h-2zM21 38h1v1h-1zM23 38h2v1h-2zM29 38h1v1h-1zM31 38h1v1h-1zM33 38h1v1h-1zM35 38h2v1h-2zM39 38h1v1h-1zM3 39h7v1h-7zM11 39h3v1h-3zM18 39h4v1h-4zM25 39h5v1h-5zM32 39h2v1h-2zM35 39h5v1h-5z" fill="#000"/></svg>